<svg width="1440" height="326" viewBox="0 0 1440 326" fill="none" xmlns="http://www.w3.org/2000/svg">
<g clip-path="url(#clip0_1412_329925)">
<path d="M1440 0H0V326H1440V0Z" fill="#E6E9EF"/>
<path d="M54.4 0H0V136.9H54.4V0Z" fill="#ADDEC9"/>
<path d="M1120.4 70.2002L1292.9 76.6002V244.5L1120.4 70.2002Z" fill="#ADDEC9"/>
<path d="M634.6 244.5H384.9V325.9H634.6V244.5Z" fill="#ADDEC9"/>
<path d="M836.6 0V73.4H708C676.4 73.4 649.5 53.4 639.1 25.4C636.2 17.5 634.6 8.9 634.6 0H836.6V0Z" fill="#ADDEC9"/>
<path d="M795.2 50.0998C804.81 50.0998 812.6 42.3096 812.6 32.6998C812.6 23.0901 804.81 15.2998 795.2 15.2998C785.59 15.2998 777.8 23.0901 777.8 32.6998C777.8 42.3096 785.59 50.0998 795.2 50.0998Z" fill="#06C167"/>
<path d="M796.5 32.6997H793.9V57.8997H796.5V32.6997Z" fill="#4F545B"/>
<path d="M760.8 13.2002H758.8C753.9 13.2002 749.9 17.2002 749.9 22.1002V38.9002C749.9 43.8002 753.9 47.8002 758.8 47.8002H760.8C765.7 47.8002 769.7 43.8002 769.7 38.9002V22.1002C769.7 17.2002 765.7 13.2002 760.8 13.2002Z" fill="#06C167"/>
<path d="M760.9 27.9004H758.7V57.9004H760.9V27.9004Z" fill="#4F545B"/>
<path d="M449.2 289.1C449.2 290.9 447.2 292.3 446.6 293.9C446.1 295.6 446.8 297.9 445.8 299.3C444.8 300.7 442.3 300.7 440.9 301.7C439.5 302.7 438.8 305.1 437.1 305.6C435.5 306.1 433.5 304.7 431.7 304.7C429.9 304.7 427.9 306.2 426.3 305.6C424.6 305.1 423.9 302.7 422.5 301.7C421.1 300.7 418.6 300.7 417.6 299.3C416.6 297.9 417.4 295.6 416.8 293.9C416.3 292.3 414.2 290.9 414.2 289.1C414.2 287.3 416.2 285.9 416.8 284.3C417.3 282.6 416.6 280.3 417.6 278.9C418.6 277.5 421.1 277.5 422.5 276.5C423.9 275.5 424.6 273.1 426.3 272.6C427.9 272.1 429.9 273.5 431.7 273.5C433.5 273.5 435.5 272 437.1 272.6C438.8 273.1 439.5 275.5 440.9 276.5C442.3 277.5 444.8 277.5 445.8 278.9C446.8 280.3 446 282.6 446.6 284.3C447.1 285.9 449.2 287.3 449.2 289.1Z" fill="#06C167"/>
<path d="M432.7 287.6H430.7V315.3H432.7V287.6Z" fill="#4F545B"/>
<path d="M439.249 289.592L430.693 298.148L432.107 299.562L440.663 291.006L439.249 289.592Z" fill="#4F545B"/>
<path d="M1440 239.9H0V249H1440V239.9Z" fill="white"/>
<path d="M639.1 0V96.9C639.1 121.9 618.8 142.2 593.8 142.2H0V133.2H593.9C613.9 133.2 630.1 116.9 630.1 97V0H639.1Z" fill="white"/>
<path d="M394 0.100098H384.9V325.9H394V0.100098Z" fill="white"/>
<path d="M295.4 249H49.8999V133.1H295.4V249ZM58.9999 239.9H286.4V142.2H58.9999V239.9Z" fill="white"/>
<path d="M58.9999 0H49.8999V163H58.9999V0Z" fill="white"/>
<path d="M1376.2 326H1363.4L1114 76.6002L1120.4 70.2002L1299.2 249L1376.2 326Z" fill="white"/>
<path d="M204.3 326H217.1L296.9 246.3L290.5 239.9L282.8 247.6L211.9 318.4L204.4 325.9L204.3 326Z" fill="white"/>
<path d="M639.2 244.4H630.1V325.9H639.2V244.4Z" fill="white"/>
<path d="M841.2 0H832.1V325.9H841.2V0Z" fill="white"/>
<path d="M1440 68.8999H836.6V77.9999H1440V68.8999Z" fill="white"/>
<path d="M389.4 68.8999H54.3999V77.9999H389.4V68.8999Z" fill="white"/>
<path d="M1292.9 1.7002H1283.8V244.5H1292.9V1.7002Z" fill="white"/>
<path d="M846.7 68.9V77.9H708C678.2 77.9 652.2 61 639.1 36.4C633.3 25.5 630.1 13.2 630.1 0H639.1C639.1 0.7 639.1 1.3 639.1 2C640.2 39 670.7 68.9 708 68.9H846.7Z" fill="white"/>
<g filter="url(#filter0_d_1412_329925)">
<circle cx="300.5" cy="286.5" r="18.5" fill="white"/>
<g clip-path="url(#clip1_1412_329925)">
<path fill-rule="evenodd" clip-rule="evenodd" d="M298.188 284.445V279.049H299.729V284.445C299.729 286.218 298.573 287.682 297.031 288.145V296.007H294.719V288.145C293.177 287.605 292.021 286.14 292.021 284.445V279.049H293.563V284.445H295.104V279.049H296.646V284.445H298.188ZM301.271 282.903C301.271 280.745 302.967 279.049 305.125 279.049C307.283 279.049 308.979 280.745 308.979 282.903V284.445C308.979 286.14 307.823 287.605 306.281 288.068V296.007H303.969V288.068C302.427 287.605 301.271 286.14 301.271 284.445V282.903Z" fill="black"/>
</g>
<circle cx="873.5" cy="41.5" r="18.5" fill="white"/>
<g clip-path="url(#clip2_1412_329925)">
<path fill-rule="evenodd" clip-rule="evenodd" d="M871.188 39.4447V34.0488H872.729V39.4447C872.729 41.2176 871.573 42.6821 870.031 43.1446V51.0072H867.719V43.1446C866.177 42.6051 865.021 41.1405 865.021 39.4447V34.0488H866.563V39.4447H868.104V34.0488H869.646V39.4447H871.188ZM874.271 37.903C874.271 35.7447 875.967 34.0488 878.125 34.0488C880.283 34.0488 881.979 35.7447 881.979 37.903V39.4447C881.979 41.1405 880.823 42.6051 879.281 43.0676V51.0072H876.969V43.0676C875.427 42.6051 874.271 41.1405 874.271 39.4447V37.903Z" fill="black"/>
</g>
</g>
<path opacity="0.29" d="M95.9 121C105.62 121 113.5 113.12 113.5 103.4C113.5 93.6796 105.62 85.7998 95.9 85.7998C86.1798 85.7998 78.3 93.6796 78.3 103.4C78.3 113.12 86.1798 121 95.9 121Z" fill="#276EF1"/>
<path d="M95.9 112C100.65 112 104.5 108.149 104.5 103.4C104.5 98.6502 100.65 94.7998 95.9 94.7998C91.1504 94.7998 87.3 98.6502 87.3 103.4C87.3 108.149 91.1504 112 95.9 112Z" fill="#276EF1"/>
<g filter="url(#filter1_d_1412_329925)">
<ellipse cx="250.5" cy="42.5" rx="18.5" ry="18.5" fill="white"/>
<path d="M254.354 36.5903C252.658 36.5903 251.425 37.5153 250.5 38.5174C249.575 37.5924 248.342 36.5903 246.646 36.5903C243.948 36.5903 242.021 38.8257 242.021 41.6007C242.021 42.9882 242.56 44.2216 243.562 45.0695L250.5 51.6216L257.437 45.0695C258.362 44.1445 258.979 42.9882 258.979 41.6007C258.979 38.8257 257.052 36.5903 254.354 36.5903Z" fill="black"/>
</g>
</g>
<defs>
<filter id="filter0_d_1412_329925" x="234" y="-9" width="706" height="378" filterUnits="userSpaceOnUse" color-interpolation-filters="sRGB">
<feFlood flood-opacity="0" result="BackgroundImageFix"/>
<feColorMatrix in="SourceAlpha" type="matrix" values="0 0 0 0 0 0 0 0 0 0 0 0 0 0 0 0 0 0 127 0" result="hardAlpha"/>
<feOffset dy="16"/>
<feGaussianBlur stdDeviation="24"/>
<feColorMatrix type="matrix" values="0 0 0 0 0 0 0 0 0 0 0 0 0 0 0 0 0 0 0.22 0"/>
<feBlend mode="normal" in2="BackgroundImageFix" result="effect1_dropShadow_1412_329925"/>
<feBlend mode="normal" in="SourceGraphic" in2="effect1_dropShadow_1412_329925" result="shape"/>
</filter>
<filter id="filter1_d_1412_329925" x="184" y="-8" width="133" height="133" filterUnits="userSpaceOnUse" color-interpolation-filters="sRGB">
<feFlood flood-opacity="0" result="BackgroundImageFix"/>
<feColorMatrix in="SourceAlpha" type="matrix" values="0 0 0 0 0 0 0 0 0 0 0 0 0 0 0 0 0 0 127 0" result="hardAlpha"/>
<feOffset dy="16"/>
<feGaussianBlur stdDeviation="24"/>
<feColorMatrix type="matrix" values="0 0 0 0 0 0 0 0 0 0 0 0 0 0 0 0 0 0 0.22 0"/>
<feBlend mode="normal" in2="BackgroundImageFix" result="effect1_dropShadow_1412_329925"/>
<feBlend mode="normal" in="SourceGraphic" in2="effect1_dropShadow_1412_329925" result="shape"/>
</filter>
<clipPath id="clip0_1412_329925">
<rect width="1440" height="326" fill="white"/>
</clipPath>
<clipPath id="clip1_1412_329925">
<rect width="18.5" height="18.5" fill="white" transform="translate(291.25 278.278)"/>
</clipPath>
<clipPath id="clip2_1412_329925">
<rect width="18.5" height="18.5" fill="white" transform="translate(864.25 33.2778)"/>
</clipPath>
</defs>
</svg>
